<svg width="75" height="75" viewBox="0 0 75 75" fill="none" xmlns="http://www.w3.org/2000/svg">
<path d="M53.125 12.5C52.2962 12.5 51.5013 12.1708 50.9153 11.5847C50.3292 10.9987 50 10.2038 50 9.375C50 8.5462 50.3292 7.75134 50.9153 7.16529C51.5013 6.57924 52.2962 6.25 53.125 6.25H65.625C66.4538 6.25 67.2487 6.57924 67.8347 7.16529C68.4208 7.75134 68.75 8.5462 68.75 9.375V21.875C68.75 22.7038 68.4208 23.4987 67.8347 24.0847C67.2487 24.6708 66.4538 25 65.625 25C64.7962 25 64.0013 24.6708 63.4153 24.0847C62.8292 23.4987 62.5 22.7038 62.5 21.875V16.9187L44.3969 35.0219C43.8109 35.6077 43.0161 35.9368 42.1875 35.9368C41.3589 35.9368 40.5641 35.6077 39.9781 35.0219L31.25 26.2937L14.7094 42.8344C14.12 43.4036 13.3306 43.7186 12.5112 43.7115C11.6919 43.7044 10.9081 43.3757 10.3287 42.7963C9.74929 42.2169 9.42064 41.4331 9.41352 40.6138C9.4064 39.7944 9.72138 39.005 10.2906 38.4156L29.0406 19.6656C29.6266 19.0798 30.4214 18.7507 31.25 18.7507C32.0786 18.7507 32.8734 19.0798 33.4594 19.6656L42.1875 28.3938L58.0813 12.5H53.125ZM15.625 56.25V65.625C15.625 66.4538 15.2958 67.2487 14.7097 67.8347C14.1237 68.4208 13.3288 68.75 12.5 68.75C11.6712 68.75 10.8763 68.4208 10.2903 67.8347C9.70424 67.2487 9.375 66.4538 9.375 65.625V56.25C9.375 55.4212 9.70424 54.6263 10.2903 54.0403C10.8763 53.4542 11.6712 53.125 12.5 53.125C13.3288 53.125 14.1237 53.4542 14.7097 54.0403C15.2958 54.6263 15.625 55.4212 15.625 56.25ZM31.25 43.75C31.25 42.9212 30.9208 42.1263 30.3347 41.5403C29.7487 40.9542 28.9538 40.625 28.125 40.625C27.2962 40.625 26.5013 40.9542 25.9153 41.5403C25.3292 42.1263 25 42.9212 25 43.75V65.625C25 66.4538 25.3292 67.2487 25.9153 67.8347C26.5013 68.4208 27.2962 68.75 28.125 68.75C28.9538 68.75 29.7487 68.4208 30.3347 67.8347C30.9208 67.2487 31.25 66.4538 31.25 65.625V43.75ZM43.75 46.875C44.5788 46.875 45.3737 47.2042 45.9597 47.7903C46.5458 48.3763 46.875 49.1712 46.875 50V65.625C46.875 66.4538 46.5458 67.2487 45.9597 67.8347C45.3737 68.4208 44.5788 68.75 43.75 68.75C42.9212 68.75 42.1263 68.4208 41.5403 67.8347C40.9542 67.2487 40.625 66.4538 40.625 65.625V50C40.625 49.1712 40.9542 48.3763 41.5403 47.7903C42.1263 47.2042 42.9212 46.875 43.75 46.875ZM62.5 34.375C62.5 33.5462 62.1708 32.7513 61.5847 32.1653C60.9987 31.5792 60.2038 31.25 59.375 31.25C58.5462 31.25 57.7513 31.5792 57.1653 32.1653C56.5792 32.7513 56.25 33.5462 56.25 34.375V65.625C56.25 66.4538 56.5792 67.2487 57.1653 67.8347C57.7513 68.4208 58.5462 68.75 59.375 68.75C60.2038 68.75 60.9987 68.4208 61.5847 67.8347C62.1708 67.2487 62.5 66.4538 62.5 65.625V34.375Z" fill="#FF8C00"/>
</svg>
