<svg width="75" height="75" viewBox="0 0 75 75" fill="none" xmlns="http://www.w3.org/2000/svg">
<g clip-path="url(#clip0_5214_138)">
<path d="M37.5 76.25C33.3962 76.25 29.3326 75.4417 25.5411 73.8712C21.7497 72.3008 18.3047 69.9989 15.4029 67.0971C9.5424 61.2366 6.25 53.288 6.25 45C6.25 36.712 9.5424 28.7634 15.4029 22.9029C21.2634 17.0424 29.212 13.75 37.5 13.75C54.6875 13.75 68.75 26.25 68.75 41.875C68.75 46.8478 66.7746 51.6169 63.2583 55.1333C59.7419 58.6496 54.9728 60.625 50 60.625H44.375C43.4375 60.625 42.8125 61.25 42.8125 62.1875C42.8125 62.5 43.125 62.8125 43.125 63.125C44.375 64.6875 45 66.5625 45 68.4375C45.3125 72.8125 41.875 76.25 37.5 76.25ZM37.5 20C30.8696 20 24.5107 22.6339 19.8223 27.3223C15.1339 32.0107 12.5 38.3696 12.5 45C12.5 51.6304 15.1339 57.9893 19.8223 62.6777C24.5107 67.3661 30.8696 70 37.5 70C38.4375 70 39.0625 69.375 39.0625 68.4375C39.0625 67.8125 38.75 67.5 38.75 67.1875C37.5 65.625 36.875 64.0625 36.875 62.1875C36.875 57.8125 40.3125 54.375 44.6875 54.375H50C53.3152 54.375 56.4946 53.058 58.8388 50.7138C61.183 48.3696 62.5 45.1902 62.5 41.875C62.5 29.6875 51.25 20 37.5 20ZM20.3125 38.75C22.8125 38.75 25 40.9375 25 43.4375C25 45.9375 22.8125 48.125 20.3125 48.125C17.8125 48.125 15.625 45.9375 15.625 43.4375C15.625 40.9375 17.8125 38.75 20.3125 38.75ZM29.6875 26.25C32.1875 26.25 34.375 28.4375 34.375 30.9375C34.375 33.4375 32.1875 35.625 29.6875 35.625C27.1875 35.625 25 33.4375 25 30.9375C25 28.4375 27.1875 26.25 29.6875 26.25ZM45.3125 26.25C47.8125 26.25 50 28.4375 50 30.9375C50 33.4375 47.8125 35.625 45.3125 35.625C42.8125 35.625 40.625 33.4375 40.625 30.9375C40.625 28.4375 42.8125 26.25 45.3125 26.25ZM54.6875 38.75C57.1875 38.75 59.375 40.9375 59.375 43.4375C59.375 45.9375 57.1875 48.125 54.6875 48.125C52.1875 48.125 50 45.9375 50 43.4375C50 40.9375 52.1875 38.75 54.6875 38.75Z" fill="#FF8C00"/>
</g>
<defs>
<clipPath id="clip0_5214_138">
<rect width="75" height="75" fill="white"/>
</clipPath>
</defs>
</svg>
