<svg width="75" height="75" viewBox="0 0 75 75" fill="none" xmlns="http://www.w3.org/2000/svg">
<path d="M21.0001 28.4824L10.1778 37.5L21.0001 46.5176C21.359 46.8117 21.6561 47.174 21.8743 47.5835C22.0925 47.9931 22.2275 48.4417 22.2715 48.9037C22.3154 49.3657 22.2675 49.8317 22.1304 50.2751C21.9934 50.7184 21.7699 51.1302 21.4729 51.4868C21.1759 51.8434 20.8113 52.1376 20.4 52.3525C19.9887 52.5674 19.539 52.6988 19.0767 52.7391C18.6144 52.7794 18.1487 52.7277 17.7065 52.5871C17.2643 52.4465 16.8542 52.2198 16.5001 51.9199L2.43757 40.2012C2.04151 39.8712 1.72285 39.4582 1.50416 38.9914C1.28548 38.5247 1.17212 38.0155 1.17212 37.5C1.17212 36.9845 1.28548 36.4753 1.50416 36.0085C1.72285 35.5417 2.04151 35.1288 2.43757 34.7988L16.5001 23.0801C17.2175 22.4921 18.1381 22.2116 19.0615 22.2994C19.9849 22.3873 20.8361 22.8365 21.4297 23.5492C22.0234 24.2618 22.3113 25.1802 22.2308 26.1043C22.1504 27.0283 21.708 27.8831 21.0001 28.4824ZM72.5626 34.7988L58.5001 23.0801C58.1459 22.7802 57.7359 22.5535 57.2937 22.4129C56.8514 22.2723 56.3857 22.2206 55.9234 22.2609C55.4611 22.3012 55.0114 22.4325 54.6001 22.6475C54.1889 22.8624 53.8242 23.1566 53.5272 23.5132C53.2302 23.8697 53.0068 24.2816 52.8697 24.7249C52.7326 25.1682 52.6847 25.6343 52.7287 26.0963C52.7726 26.5582 52.9076 27.0069 53.1258 27.4165C53.344 27.826 53.6412 28.1883 54.0001 28.4824L64.8223 37.5L54.0001 46.5176C53.6412 46.8117 53.344 47.174 53.1258 47.5835C52.9076 47.9931 52.7726 48.4417 52.7287 48.9037C52.6847 49.3657 52.7326 49.8317 52.8697 50.2751C53.0068 50.7184 53.2302 51.1302 53.5272 51.4868C53.8242 51.8434 54.1889 52.1376 54.6001 52.3525C55.0114 52.5674 55.4611 52.6988 55.9234 52.7391C56.3857 52.7794 56.8514 52.7277 57.2937 52.5871C57.7359 52.4465 58.1459 52.2198 58.5001 51.9199L72.5626 40.2012C72.9586 39.8712 73.2773 39.4582 73.496 38.9914C73.7147 38.5247 73.828 38.0155 73.828 37.5C73.828 36.9845 73.7147 36.4753 73.496 36.0085C73.2773 35.5417 72.9586 35.1288 72.5626 34.7988ZM48.0762 8.41406C47.6423 8.25624 47.1815 8.18546 46.7201 8.20576C46.2588 8.22607 45.806 8.33706 45.3876 8.5324C44.9691 8.72774 44.5933 9.0036 44.2815 9.34422C43.9697 9.68484 43.7281 10.0835 43.5704 10.5176L24.8204 62.0801C24.5026 62.9562 24.5456 63.9226 24.94 64.767C25.3345 65.6113 26.048 66.2645 26.9239 66.583C27.3084 66.725 27.7152 66.7974 28.1251 66.7969C28.8469 66.797 29.5512 66.5749 30.1425 66.1609C30.7337 65.7468 31.1831 65.1608 31.4298 64.4824L50.1798 12.9199C50.3376 12.4859 50.4084 12.0251 50.3881 11.5638C50.3677 11.1025 50.2568 10.6497 50.0614 10.2312C49.8661 9.8128 49.5902 9.43696 49.2496 9.12516C48.909 8.81337 48.5103 8.57173 48.0762 8.41406Z" fill="#FF8C00"/>
</svg>
